<?xml version="1.0" encoding="utf-8"?>
<svg width="100%" height="100%" viewBox="0 0 500 200" version="1.1" xmlns="http://www.w3.org/2000/svg" style="fill-rule:evenodd;clip-rule:evenodd;stroke-linejoin:round;stroke-miterlimit:2;" xmlns:bx="https://boxy-svg.com">
  <defs>
    <bx:export>
      <bx:file format="svg"/>
    </bx:export>
  </defs>
  <g>
    <g>
      <path d="M132.703,58.209l-0,0.624l4.105,0l0,30.522l-4.105,-0l-0,0.625l28.29,-0l0,-10.085l-0.58,-0c-0.386,1.725 -0.929,3.19 -1.628,4.395c-0.699,1.205 -1.488,2.187 -2.365,2.945c-0.878,0.759 -1.815,1.302 -2.812,1.629c-0.996,0.327 -1.985,0.491 -2.967,0.491l-7.363,-0l0,-30.522l4.106,0l-0,-0.624l-14.681,-0Z" style="fill-rule: nonzero; fill: rgb(255, 255, 255);"/>
      <path d="M163.732,70.74l0,0.379l2.513,-0l0,12.619c0,0.81 0.09,1.612 0.27,2.405c0.181,0.792 0.554,1.499 1.122,2.121c0.567,0.621 1.382,1.126 2.445,1.513c1.063,0.387 2.468,0.581 4.215,0.581c1.081,-0 1.991,-0.122 2.73,-0.365c0.738,-0.243 1.351,-0.558 1.837,-0.946c0.486,-0.387 0.856,-0.824 1.108,-1.31c0.252,-0.487 0.441,-0.973 0.567,-1.459c0.126,-0.487 0.199,-0.951 0.217,-1.392c0.018,-0.441 0.027,-0.806 0.027,-1.094l-0,-12.673l2.513,-0l-0,-0.379l-5.405,0l0,0.379l2.459,-0l0,12.7c0,0.27 -0.009,0.608 -0.027,1.013c-0.018,0.405 -0.081,0.838 -0.189,1.297c-0.108,0.459 -0.279,0.919 -0.513,1.378c-0.235,0.459 -0.568,0.874 -1,1.243c-0.432,0.369 -0.977,0.667 -1.635,0.892c-0.657,0.225 -1.473,0.338 -2.445,0.338c-0.991,-0 -1.779,-0.194 -2.365,-0.581c-0.585,-0.388 -1.026,-0.897 -1.324,-1.527c-0.297,-0.631 -0.486,-1.347 -0.567,-2.148c-0.081,-0.802 -0.122,-1.626 -0.122,-2.473l0,-12.132l2.486,-0l0,-0.379l-8.917,0Z" style="fill-rule: nonzero; fill: rgb(255, 255, 255);"/>
      <path d="M184.809,70.74l-0,0.379l2.486,-0l-0,18.482l-2.486,0l-0,0.379l5.404,-0l-0,-0.379l-2.486,0l0,-18.482l0.054,-0l6.674,18.861l0.433,-0l6.647,-18.861l0.054,-0l-0,18.482l-2.459,0l-0,0.379l8.863,-0l-0,-0.379l-2.486,0l-0,-18.482l2.486,-0l-0,-0.379l-6.755,0l-4.756,13.457l-0.054,0l-4.675,-13.457l-6.944,0Z" style="fill-rule: nonzero; fill: rgb(255, 255, 255);"/>
      <path d="M209.965,70.74l0,0.379l2.486,-0l0,18.482l-2.486,0l0,0.379l8.89,-0l0,-0.379l-2.486,0l0,-18.482l2.486,-0l0,-0.379l-8.89,0Z" style="fill-rule: nonzero; fill: rgb(255, 255, 255);"/>
      <path d="M231.042,69.389l-2.378,-4.755c-0.09,-0.198 -0.212,-0.388 -0.365,-0.568c-0.153,-0.18 -0.41,-0.27 -0.77,-0.27c-0.144,0 -0.329,0.068 -0.554,0.203c-0.225,0.135 -0.338,0.337 -0.338,0.608c0,0.072 0.014,0.18 0.041,0.324c0.027,0.144 0.095,0.279 0.203,0.405l3.81,4.053l0.351,0Zm-10.133,1.351l-0,0.379l2.486,-0l-0,18.482l-2.486,0l-0,0.379l17.267,-0l-0,-5.918l-0.352,-0c-0.18,0.775 -0.441,1.5 -0.783,2.175c-0.343,0.676 -0.77,1.266 -1.284,1.77c-0.513,0.504 -1.103,0.896 -1.77,1.175c-0.666,0.28 -1.414,0.419 -2.243,0.419l-4.431,0l0,-9.754l1.81,-0c0.631,-0 1.158,0.108 1.581,0.324c0.424,0.216 0.779,0.509 1.068,0.878c0.288,0.369 0.517,0.797 0.689,1.284c0.171,0.486 0.319,0.99 0.445,1.513l0.352,-0l-0,-8.404l-0.352,0c-0.126,0.613 -0.288,1.167 -0.486,1.662c-0.198,0.495 -0.45,0.919 -0.757,1.27c-0.306,0.351 -0.689,0.621 -1.148,0.811c-0.459,0.189 -1.022,0.283 -1.689,0.283l-1.513,0l0,-8.349l4.296,-0c0.883,-0 1.631,0.166 2.243,0.5c0.613,0.333 1.113,0.725 1.5,1.175c0.387,0.45 0.689,0.914 0.905,1.392c0.216,0.477 0.369,0.869 0.459,1.175l0.352,0l-0,-4.621l-16.159,0Z" style="fill-rule: nonzero; fill: rgb(255, 255, 255);"/>
      <path d="M246.768,79.468l0,-8.349c0.198,-0.018 0.397,-0.036 0.595,-0.054c0.198,-0.018 0.396,-0.027 0.594,-0.027c0.685,-0 1.248,0.09 1.689,0.27c0.441,0.18 0.788,0.455 1.04,0.824c0.253,0.369 0.433,0.838 0.541,1.405c0.108,0.568 0.162,1.248 0.162,2.04c-0,0.487 -0.032,0.964 -0.095,1.432c-0.063,0.469 -0.211,0.888 -0.446,1.257c-0.234,0.369 -0.585,0.662 -1.053,0.878c-0.469,0.216 -1.108,0.324 -1.919,0.324l-1.108,0Zm-3.918,-8.349l0,18.482l-2.486,0l0,0.379l8.89,-0l0,-0.379l-2.486,0l0,-9.754l1.784,-0c0.846,-0 1.504,0.162 1.972,0.486c0.469,0.324 0.82,0.757 1.054,1.297c0.234,0.54 0.383,1.157 0.446,1.851c0.063,0.694 0.112,1.41 0.148,2.148c0.018,0.487 0.059,1.004 0.122,1.554c0.063,0.549 0.23,1.058 0.5,1.527c0.27,0.468 0.685,0.86 1.243,1.175c0.558,0.315 1.333,0.473 2.324,0.473c0.486,-0 0.891,-0.032 1.216,-0.095c0.324,-0.063 0.599,-0.148 0.824,-0.256c0.225,-0.109 0.423,-0.239 0.594,-0.392c0.171,-0.153 0.347,-0.32 0.527,-0.5l-0.27,-0.243c-0.18,0.18 -0.387,0.373 -0.621,0.581c-0.235,0.207 -0.532,0.31 -0.892,0.31c-0.324,0 -0.572,-0.063 -0.743,-0.189c-0.171,-0.126 -0.306,-0.378 -0.406,-0.756c-0.099,-0.379 -0.175,-0.91 -0.229,-1.595c-0.054,-0.684 -0.126,-1.594 -0.216,-2.729c-0.072,-0.973 -0.257,-1.747 -0.554,-2.324c-0.298,-0.576 -0.698,-1.026 -1.203,-1.351c-0.504,-0.324 -1.103,-0.567 -1.797,-0.729c-0.693,-0.162 -1.481,-0.324 -2.364,-0.487l-0,-0.135c0.612,-0.054 1.234,-0.166 1.864,-0.337c0.631,-0.172 1.203,-0.419 1.716,-0.744c0.514,-0.324 0.932,-0.743 1.257,-1.256c0.324,-0.513 0.486,-1.13 0.486,-1.851c0,-0.901 -0.212,-1.648 -0.635,-2.243c-0.423,-0.594 -0.959,-1.067 -1.608,-1.418c-0.648,-0.352 -1.364,-0.599 -2.148,-0.743c-0.783,-0.145 -1.527,-0.217 -2.229,-0.217c-0.757,0 -1.504,0.014 -2.243,0.041c-0.738,0.027 -1.486,0.04 -2.243,0.04l-4.08,0l0,0.379l2.486,-0Z" style="fill-rule: nonzero; fill: rgb(255, 255, 255);"/>
      <path d="M259.928,70.74l-0,0.379l2.486,-0l-0,18.482l-2.486,0l-0,0.379l17.266,-0l0,-5.918l-0.351,-0c-0.18,0.775 -0.442,1.5 -0.784,2.175c-0.342,0.676 -0.77,1.266 -1.283,1.77c-0.514,0.504 -1.104,0.896 -1.77,1.175c-0.667,0.28 -1.414,0.419 -2.243,0.419l-4.431,0l-0,-9.754l1.81,-0c0.63,-0 1.157,0.108 1.581,0.324c0.423,0.216 0.779,0.509 1.067,0.878c0.288,0.369 0.518,0.797 0.689,1.284c0.171,0.486 0.32,0.99 0.446,1.513l0.351,-0l0,-8.404l-0.351,0c-0.126,0.613 -0.288,1.167 -0.486,1.662c-0.199,0.495 -0.451,0.919 -0.757,1.27c-0.306,0.351 -0.689,0.621 -1.148,0.811c-0.46,0.189 -1.023,0.283 -1.689,0.283l-1.513,0l-0,-8.349l4.296,-0c0.883,-0 1.63,0.166 2.243,0.5c0.612,0.333 1.112,0.725 1.499,1.175c0.388,0.45 0.689,0.914 0.906,1.392c0.216,0.477 0.369,0.869 0.459,1.175l0.351,0l0,-4.621l-16.158,0Z" style="fill-rule: nonzero; fill: rgb(255, 255, 255);"/>
      <path d="M280.139,83.981l0,5.999l0.433,-0c0.09,-0.253 0.189,-0.419 0.297,-0.5c0.108,-0.081 0.288,-0.122 0.54,-0.122c0.181,0 0.455,0.054 0.825,0.162c0.369,0.108 0.792,0.221 1.27,0.338c0.477,0.117 0.99,0.23 1.54,0.338c0.549,0.108 1.103,0.162 1.662,0.162c1.116,-0 2.13,-0.176 3.039,-0.527c0.91,-0.351 1.694,-0.824 2.351,-1.419c0.658,-0.594 1.167,-1.288 1.527,-2.08c0.36,-0.793 0.54,-1.631 0.54,-2.513c0,-0.901 -0.166,-1.658 -0.5,-2.27c-0.333,-0.613 -0.77,-1.135 -1.31,-1.567c-0.54,-0.433 -1.157,-0.788 -1.851,-1.068c-0.694,-0.279 -1.405,-0.536 -2.135,-0.77c-0.729,-0.234 -1.441,-0.459 -2.134,-0.675c-0.694,-0.216 -1.311,-0.473 -1.851,-0.77c-0.541,-0.298 -0.978,-0.653 -1.311,-1.068c-0.333,-0.414 -0.5,-0.936 -0.5,-1.567c0,-0.414 0.099,-0.82 0.298,-1.216c0.198,-0.396 0.486,-0.756 0.864,-1.081c0.379,-0.324 0.842,-0.585 1.392,-0.783c0.549,-0.198 1.184,-0.298 1.905,-0.298c0.882,0 1.612,0.154 2.189,0.46c0.576,0.306 1.053,0.707 1.432,1.202c0.378,0.496 0.689,1.05 0.932,1.662c0.243,0.613 0.473,1.234 0.689,1.865l0.351,-0l0,-5.135l-0.432,0c-0.09,0.217 -0.176,0.365 -0.257,0.446c-0.081,0.081 -0.248,0.122 -0.5,0.122c-0.216,-0 -0.455,-0.054 -0.716,-0.162c-0.261,-0.108 -0.563,-0.221 -0.905,-0.338c-0.342,-0.117 -0.739,-0.23 -1.189,-0.338c-0.45,-0.108 -0.973,-0.162 -1.567,-0.162c-0.937,0 -1.806,0.158 -2.608,0.473c-0.801,0.315 -1.49,0.73 -2.067,1.243c-0.576,0.513 -1.027,1.103 -1.351,1.77c-0.324,0.666 -0.486,1.36 -0.486,2.081c-0,0.972 0.157,1.783 0.473,2.431c0.315,0.649 0.734,1.194 1.256,1.635c0.522,0.442 1.117,0.802 1.783,1.081c0.667,0.279 1.352,0.522 2.054,0.73c0.703,0.207 1.387,0.409 2.054,0.608c0.666,0.198 1.261,0.441 1.783,0.729c0.522,0.288 0.941,0.649 1.257,1.081c0.315,0.432 0.472,0.982 0.472,1.648c0,0.361 -0.072,0.779 -0.216,1.257c-0.144,0.477 -0.392,0.932 -0.743,1.364c-0.351,0.433 -0.833,0.797 -1.445,1.095c-0.613,0.297 -1.397,0.446 -2.351,0.446c-0.271,-0 -0.563,-0.005 -0.878,-0.014c-0.316,-0.009 -0.649,-0.063 -1,-0.162c-0.352,-0.099 -0.721,-0.257 -1.108,-0.473c-0.387,-0.216 -0.788,-0.531 -1.203,-0.946c-0.378,-0.36 -0.698,-0.752 -0.959,-1.175c-0.261,-0.423 -0.477,-0.838 -0.648,-1.243c-0.171,-0.405 -0.302,-0.784 -0.392,-1.135c-0.09,-0.351 -0.153,-0.635 -0.189,-0.851l-0.406,-0Z" style="fill-rule: nonzero; fill: rgb(255, 255, 255);"/>
      <path d="M310.054,83.981l0,5.999l0.432,-0c0.09,-0.253 0.19,-0.419 0.298,-0.5c0.108,-0.081 0.288,-0.122 0.54,-0.122c0.18,0 0.455,0.054 0.824,0.162c0.369,0.108 0.793,0.221 1.27,0.338c0.478,0.117 0.991,0.23 1.54,0.338c0.55,0.108 1.104,0.162 1.662,0.162c1.117,-0 2.13,-0.176 3.04,-0.527c0.91,-0.351 1.693,-0.824 2.351,-1.419c0.657,-0.594 1.166,-1.288 1.527,-2.08c0.36,-0.793 0.54,-1.631 0.54,-2.513c0,-0.901 -0.167,-1.658 -0.5,-2.27c-0.333,-0.613 -0.77,-1.135 -1.31,-1.567c-0.541,-0.433 -1.158,-0.788 -1.851,-1.068c-0.694,-0.279 -1.405,-0.536 -2.135,-0.77c-0.73,-0.234 -1.441,-0.459 -2.135,-0.675c-0.693,-0.216 -1.31,-0.473 -1.851,-0.77c-0.54,-0.298 -0.977,-0.653 -1.31,-1.068c-0.333,-0.414 -0.5,-0.936 -0.5,-1.567c-0,-0.414 0.099,-0.82 0.297,-1.216c0.198,-0.396 0.487,-0.756 0.865,-1.081c0.378,-0.324 0.842,-0.585 1.391,-0.783c0.55,-0.198 1.185,-0.298 1.905,-0.298c0.883,0 1.613,0.154 2.189,0.46c0.577,0.306 1.054,0.707 1.432,1.202c0.379,0.496 0.689,1.05 0.933,1.662c0.243,0.613 0.472,1.234 0.689,1.865l0.351,-0l-0,-5.135l-0.433,0c-0.09,0.217 -0.175,0.365 -0.256,0.446c-0.081,0.081 -0.248,0.122 -0.5,0.122c-0.216,-0 -0.455,-0.054 -0.716,-0.162c-0.261,-0.108 -0.563,-0.221 -0.905,-0.338c-0.343,-0.117 -0.739,-0.23 -1.189,-0.338c-0.451,-0.108 -0.973,-0.162 -1.568,-0.162c-0.936,0 -1.805,0.158 -2.607,0.473c-0.802,0.315 -1.491,0.73 -2.067,1.243c-0.577,0.513 -1.027,1.103 -1.351,1.77c-0.325,0.666 -0.487,1.36 -0.487,2.081c0,0.972 0.158,1.783 0.473,2.431c0.315,0.649 0.734,1.194 1.257,1.635c0.522,0.442 1.117,0.802 1.783,1.081c0.667,0.279 1.351,0.522 2.054,0.73c0.702,0.207 1.387,0.409 2.053,0.608c0.667,0.198 1.261,0.441 1.784,0.729c0.522,0.288 0.941,0.649 1.256,1.081c0.315,0.432 0.473,0.982 0.473,1.648c0,0.361 -0.072,0.779 -0.216,1.257c-0.144,0.477 -0.392,0.932 -0.743,1.364c-0.351,0.433 -0.833,0.797 -1.446,1.095c-0.612,0.297 -1.396,0.446 -2.351,0.446c-0.27,-0 -0.563,-0.005 -0.878,-0.014c-0.315,-0.009 -0.648,-0.063 -1,-0.162c-0.351,-0.099 -0.72,-0.257 -1.107,-0.473c-0.388,-0.216 -0.789,-0.531 -1.203,-0.946c-0.378,-0.36 -0.698,-0.752 -0.959,-1.175c-0.261,-0.423 -0.478,-0.838 -0.649,-1.243c-0.171,-0.405 -0.301,-0.784 -0.391,-1.135c-0.091,-0.351 -0.154,-0.635 -0.19,-0.851l-0.405,-0Z" style="fill-rule: nonzero; fill: rgb(255, 255, 255);"/>
      <path d="M326.726,70.74l0,0.379l2.513,-0l0,12.619c0,0.81 0.09,1.612 0.27,2.405c0.18,0.792 0.554,1.499 1.122,2.121c0.567,0.621 1.382,1.126 2.445,1.513c1.063,0.387 2.468,0.581 4.215,0.581c1.081,-0 1.991,-0.122 2.73,-0.365c0.738,-0.243 1.351,-0.558 1.837,-0.946c0.486,-0.387 0.856,-0.824 1.108,-1.31c0.252,-0.487 0.441,-0.973 0.567,-1.459c0.126,-0.487 0.198,-0.951 0.216,-1.392c0.018,-0.441 0.027,-0.806 0.027,-1.094l0,-12.673l2.513,-0l0,-0.379l-5.404,0l0,0.379l2.459,-0l0,12.7c0,0.27 -0.009,0.608 -0.027,1.013c-0.018,0.405 -0.081,0.838 -0.189,1.297c-0.108,0.459 -0.279,0.919 -0.513,1.378c-0.235,0.459 -0.568,0.874 -1,1.243c-0.433,0.369 -0.977,0.667 -1.635,0.892c-0.658,0.225 -1.473,0.338 -2.445,0.338c-0.991,-0 -1.779,-0.194 -2.365,-0.581c-0.585,-0.388 -1.027,-0.897 -1.324,-1.527c-0.297,-0.631 -0.486,-1.347 -0.567,-2.148c-0.081,-0.802 -0.122,-1.626 -0.122,-2.473l0,-12.132l2.486,-0l0,-0.379l-8.917,0Z" style="fill-rule: nonzero; fill: rgb(255, 255, 255);"/>
      <path d="M354.234,79.468l-0,-8.349c0.198,-0.018 0.396,-0.036 0.594,-0.054c0.198,-0.018 0.396,-0.027 0.595,-0.027c0.684,-0 1.247,0.09 1.688,0.27c0.442,0.18 0.789,0.455 1.041,0.824c0.252,0.369 0.432,0.838 0.54,1.405c0.108,0.568 0.162,1.248 0.162,2.04c0,0.487 -0.031,0.964 -0.094,1.432c-0.063,0.469 -0.212,0.888 -0.446,1.257c-0.234,0.369 -0.586,0.662 -1.054,0.878c-0.468,0.216 -1.108,0.324 -1.918,0.324l-1.108,0Zm-3.918,-8.349l-0,18.482l-2.486,0l-0,0.379l8.89,-0l-0,-0.379l-2.486,0l-0,-9.754l1.783,-0c0.847,-0 1.504,0.162 1.973,0.486c0.468,0.324 0.819,0.757 1.053,1.297c0.235,0.54 0.383,1.157 0.446,1.851c0.063,0.694 0.113,1.41 0.149,2.148c0.018,0.487 0.058,1.004 0.121,1.554c0.064,0.549 0.23,1.058 0.5,1.527c0.271,0.468 0.685,0.86 1.243,1.175c0.559,0.315 1.333,0.473 2.324,0.473c0.487,-0 0.892,-0.032 1.216,-0.095c0.324,-0.063 0.599,-0.148 0.824,-0.256c0.225,-0.109 0.424,-0.239 0.595,-0.392c0.171,-0.153 0.347,-0.32 0.527,-0.5l-0.271,-0.243c-0.18,0.18 -0.387,0.373 -0.621,0.581c-0.234,0.207 -0.531,0.31 -0.892,0.31c-0.324,0 -0.572,-0.063 -0.743,-0.189c-0.171,-0.126 -0.306,-0.378 -0.405,-0.756c-0.099,-0.379 -0.176,-0.91 -0.23,-1.595c-0.054,-0.684 -0.126,-1.594 -0.216,-2.729c-0.072,-0.973 -0.257,-1.747 -0.554,-2.324c-0.297,-0.576 -0.698,-1.026 -1.202,-1.351c-0.505,-0.324 -1.104,-0.567 -1.797,-0.729c-0.694,-0.162 -1.482,-0.324 -2.365,-0.487l0,-0.135c0.613,-0.054 1.234,-0.166 1.865,-0.337c0.63,-0.172 1.202,-0.419 1.716,-0.744c0.513,-0.324 0.932,-0.743 1.256,-1.256c0.324,-0.513 0.487,-1.13 0.487,-1.851c-0,-0.901 -0.212,-1.648 -0.635,-2.243c-0.424,-0.594 -0.96,-1.067 -1.608,-1.418c-0.649,-0.352 -1.365,-0.599 -2.148,-0.743c-0.784,-0.145 -1.527,-0.217 -2.23,-0.217c-0.756,0 -1.504,0.014 -2.242,0.041c-0.739,0.027 -1.487,0.04 -2.243,0.04l-4.08,0l-0,0.379l2.486,-0Z" style="fill-rule: nonzero; fill: rgb(255, 255, 255);"/>
    </g>
    <g>
      <g>
        <path d="M388.668,53.286c-1.025,-1.577 -3.095,-2.092 -4.74,-1.18c-0,0 -0.001,0.001 -0.001,0.001c-0.749,0.415 -1.292,1.123 -1.499,1.954c-0.207,0.832 -0.059,1.711 0.408,2.429c-0,0.001 0,0.001 0,0.002c1.026,1.577 3.096,2.092 4.741,1.18c0,-0.001 0.001,-0.001 0.001,-0.001c0.749,-0.416 1.292,-1.123 1.499,-1.955c0.207,-0.831 0.059,-1.711 -0.408,-2.429c-0,-0 -0,-0 -0.001,-0.001Z" style="fill: rgb(255, 255, 255);"/>
        <path d="M463.244,71.85c-1.025,-1.577 -3.095,-2.092 -4.74,-1.18c-0.001,0 -0.001,0 -0.002,0.001c-0.749,0.415 -1.291,1.123 -1.498,1.954c-0.207,0.831 -0.06,1.711 0.407,2.429c0,0.001 0.001,0.001 0.001,0.001c1.025,1.577 3.096,2.093 4.741,1.18c-0,0 0,-0 0.001,-0c0.749,-0.416 1.292,-1.124 1.498,-1.955c0.207,-0.831 0.06,-1.711 -0.407,-2.429c-0,-0 -0.001,-0.001 -0.001,-0.001Z" style="fill: rgb(255, 255, 255);"/>
        <g>
          <path d="M398.174,55.645c0,0 -5.876,3.26 -8.606,4.774c-0.353,0.195 -0.609,0.529 -0.706,0.92c-0.098,0.391 -0.028,0.806 0.192,1.144c0,0.001 0.001,0.001 0.001,0.002c0.461,0.709 1.392,0.941 2.131,0.531c2.707,-1.502 8.658,-4.803 8.658,-4.803l-1.67,-2.568Z" style="fill: rgb(255, 255, 255);"/>
          <path d="M399.845,58.207c0,0 -3.709,-5.705 -5.396,-8.3c-0.461,-0.709 -1.391,-0.941 -2.131,-0.531c-0,0.001 -0.001,0.001 -0.002,0.002c-0.353,0.195 -0.608,0.529 -0.706,0.92c-0.097,0.391 -0.028,0.806 0.192,1.144c1.702,2.617 5.365,8.251 5.365,8.251l2.678,-1.486Z" style="fill: rgb(255, 255, 255);"/>
        </g>
        <g>
          <path d="M407.252,57.876c0,-0 -11.208,6.216 -15.165,8.411c-0.353,0.196 -0.609,0.529 -0.706,0.92c-0.098,0.392 -0.028,0.806 0.192,1.144c0,0.001 0.001,0.002 0.001,0.003c0.461,0.708 1.392,0.94 2.131,0.53c3.911,-2.169 15.217,-8.44 15.217,-8.44l-1.67,-2.568Z" style="fill: rgb(255, 255, 255);"/>
          <path d="M408.922,60.444c-0,-0 -7.047,-10.839 -9.485,-14.589c-0.46,-0.709 -1.391,-0.94 -2.13,-0.53c-0.001,0 -0.002,0.001 -0.003,0.001c-0.352,0.196 -0.608,0.529 -0.705,0.92c-0.098,0.392 -0.028,0.806 0.192,1.144c2.466,3.795 9.452,14.54 9.452,14.54l2.679,-1.486Z" style="fill: rgb(255, 255, 255);"/>
        </g>
        <g>
          <path d="M449.465,68.413c-0,-0 3.663,5.634 5.364,8.251c0.22,0.338 0.29,0.752 0.192,1.144c-0.097,0.391 -0.353,0.725 -0.706,0.92c-0,0.001 -0.001,0.001 -0.002,0.002c-0.739,0.41 -1.67,0.178 -2.131,-0.531c-1.687,-2.595 -5.396,-8.301 -5.396,-8.301l2.679,-1.485Z" style="fill: rgb(255, 255, 255);"/>
          <path d="M446.787,69.892c0,0 5.951,-3.3 8.658,-4.802c0.74,-0.41 1.67,-0.178 2.131,0.531c0.001,0 0.001,0.001 0.002,0.002c0.219,0.338 0.289,0.752 0.192,1.144c-0.098,0.391 -0.354,0.724 -0.706,0.92c-2.73,1.514 -8.607,4.774 -8.607,4.774l-1.67,-2.569Z" style="fill: rgb(255, 255, 255);"/>
        </g>
        <g>
          <path d="M439.76,65.968c0,-0 6.986,10.745 9.453,14.539c0.22,0.338 0.289,0.753 0.192,1.144c-0.098,0.391 -0.353,0.725 -0.706,0.92c-0.001,0.001 -0.002,0.001 -0.003,0.002c-0.739,0.41 -1.669,0.178 -2.13,-0.531c-2.438,-3.75 -9.485,-14.588 -9.485,-14.588l2.679,-1.486Z" style="fill: rgb(255, 255, 255);"/>
          <path d="M437.081,67.454c0,-0 11.306,-6.271 15.217,-8.44c0.739,-0.411 1.67,-0.179 2.131,0.53c0,0.001 0.001,0.002 0.001,0.002c0.22,0.338 0.29,0.753 0.192,1.144c-0.097,0.391 -0.353,0.725 -0.705,0.92c-3.958,2.195 -15.166,8.412 -15.166,8.412l-1.67,-2.568Z" style="fill: rgb(255, 255, 255);"/>
        </g>
        <path d="M460.608,72l-74.652,-18.583l-0.714,2.867l74.653,18.583l0.713,-2.867Z" style="fill: rgb(255, 255, 255);"/>
      </g>
      <g>
        <path d="M433.355,31.936c0.749,-0.416 1.291,-1.123 1.498,-1.955c0.207,-0.831 0.06,-1.711 -0.407,-2.429c-0,-0 -0.001,-0 -0.001,-0.001c-1.025,-1.577 -3.096,-2.092 -4.741,-1.18c0,0 -0,0.001 -0.001,0.001c-0.749,0.415 -1.292,1.123 -1.498,1.954c-0.207,0.832 -0.06,1.711 0.407,2.429c0,0.001 0.001,0.001 0.001,0.002c1.025,1.577 3.095,2.092 4.74,1.18c0.001,-0.001 0.001,-0.001 0.002,-0.001Z" style="fill: rgb(255, 255, 255);"/>
        <path d="M416.048,101.463c0.749,-0.416 1.291,-1.124 1.498,-1.955c0.207,-0.831 0.06,-1.711 -0.407,-2.429c-0,-0 -0.001,-0.001 -0.001,-0.001c-1.025,-1.577 -3.096,-2.092 -4.741,-1.18c0,0 -0,0.001 -0.001,0.001c-0.749,0.415 -1.292,1.123 -1.498,1.954c-0.207,0.831 -0.06,1.711 0.407,2.429c0,0.001 0.001,0.001 0.001,0.001c1.025,1.577 3.095,2.093 4.74,1.18c0.001,0 0.001,0 0.002,-0Z" style="fill: rgb(255, 255, 255);"/>
        <g>
          <path d="M431.133,40.812c-0,-0 -3.71,-5.706 -5.397,-8.301c-0.461,-0.709 -1.391,-0.94 -2.13,-0.53c-0.001,0 -0.002,0.001 -0.003,0.001c-0.353,0.196 -0.608,0.529 -0.706,0.92c-0.097,0.392 -0.028,0.806 0.192,1.144c1.702,2.617 5.365,8.251 5.365,8.251l2.679,-1.485Z" style="fill: rgb(255, 255, 255);"/>
          <path d="M428.46,42.299c0,0 5.877,-3.259 8.607,-4.774c0.353,-0.195 0.608,-0.529 0.706,-0.92c0.097,-0.391 0.027,-0.806 -0.192,-1.144c-0.001,-0 -0.001,-0.001 -0.002,-0.002c-0.461,-0.709 -1.391,-0.94 -2.131,-0.53c-2.707,1.501 -8.658,4.802 -8.658,4.802l1.67,2.568Z" style="fill: rgb(255, 255, 255);"/>
        </g>
        <g>
          <path d="M429.057,49.276c0,-0 -7.047,-10.839 -9.484,-14.589c-0.461,-0.709 -1.392,-0.94 -2.131,-0.53c-0.001,0 -0.002,0.001 -0.002,0.001c-0.353,0.196 -0.609,0.529 -0.706,0.92c-0.098,0.392 -0.028,0.806 0.192,1.144c2.466,3.794 9.452,14.54 9.452,14.54l2.679,-1.486Z" style="fill: rgb(255, 255, 255);"/>
          <path d="M426.378,50.762c0,-0 11.208,-6.217 15.166,-8.412c0.352,-0.196 0.608,-0.529 0.705,-0.92c0.098,-0.392 0.028,-0.806 -0.192,-1.144c-0,-0.001 -0.001,-0.002 -0.001,-0.002c-0.461,-0.709 -1.392,-0.941 -2.131,-0.531c-3.911,2.17 -15.217,8.44 -15.217,8.44l1.67,2.569Z" style="fill: rgb(255, 255, 255);"/>
        </g>
        <g>
          <path d="M419.229,88.63c0,-0 -5.951,3.301 -8.658,4.802c-0.739,0.41 -1.669,0.178 -2.13,-0.53c-0.001,-0.001 -0.001,-0.002 -0.002,-0.003c-0.22,-0.338 -0.289,-0.752 -0.192,-1.144c0.098,-0.391 0.353,-0.724 0.706,-0.92c2.73,-1.514 8.607,-4.774 8.607,-4.774l1.669,2.569Z" style="fill: rgb(255, 255, 255);"/>
          <path d="M417.566,86.063c0,0 3.663,5.634 5.365,8.252c0.219,0.338 0.289,0.752 0.192,1.143c-0.098,0.392 -0.353,0.725 -0.706,0.921c-0.001,0 -0.002,0 -0.003,0.001c-0.739,0.41 -1.67,0.178 -2.13,-0.53c-1.688,-2.596 -5.397,-8.301 -5.397,-8.301l2.679,-1.486Z" style="fill: rgb(255, 255, 255);"/>
        </g>
        <g>
          <path d="M421.513,79.583c-0,0 -11.306,6.271 -15.217,8.44c-0.739,0.41 -1.67,0.179 -2.131,-0.53c-0,-0.001 -0.001,-0.002 -0.001,-0.002c-0.22,-0.339 -0.29,-0.753 -0.192,-1.144c0.097,-0.392 0.353,-0.725 0.706,-0.92c3.957,-2.196 15.165,-8.412 15.165,-8.412l1.67,2.568Z" style="fill: rgb(255, 255, 255);"/>
          <path d="M419.843,77.015c-0,-0 6.986,10.745 9.452,14.54c0.22,0.338 0.29,0.752 0.192,1.143c-0.097,0.392 -0.353,0.725 -0.705,0.921c-0.001,0 -0.002,0 -0.003,0.001c-0.739,0.41 -1.67,0.178 -2.131,-0.53c-2.437,-3.75 -9.484,-14.589 -9.484,-14.589l2.679,-1.486Z" style="fill: rgb(255, 255, 255);"/>
        </g>
        <path d="M415.777,98.992l17.325,-69.598l-3.075,-0.766l-17.325,69.599l3.075,0.765Z" style="fill: rgb(255, 255, 255);"/>
      </g>
      <g>
        <path d="M406.182,33.657c0.428,-1.719 -0.619,-3.46 -2.339,-3.888c-0.15,-0.037 -0.301,-0.075 -0.452,-0.112c-1.719,-0.428 -3.46,0.619 -3.888,2.338c0,-0 0,-0 0,-0c-0.428,1.719 0.619,3.46 2.338,3.888c0.151,0.037 0.302,0.075 0.453,0.112c1.719,0.428 3.46,-0.619 3.888,-2.338c-0,0 -0,0 -0,0Z" style="fill: rgb(255, 255, 255);"/>
        <path d="M446.677,95.947c0.428,-1.72 -0.619,-3.46 -2.338,-3.888c-0.151,-0.038 -0.302,-0.075 -0.453,-0.113c-1.719,-0.428 -3.46,0.619 -3.888,2.338c0,0 0,0 0,0c-0.428,1.72 0.619,3.46 2.339,3.888c0.15,0.038 0.301,0.075 0.452,0.113c1.719,0.428 3.46,-0.619 3.888,-2.338c-0,-0 -0,-0 -0,-0Z" style="fill: rgb(255, 255, 255);"/>
        <g>
          <path d="M411.346,41.604c-0,-0 -6.941,-1.728 -10.012,-2.492c-0.791,-0.197 -1.592,0.284 -1.789,1.075c-0,0.001 -0.001,0.002 -0.001,0.003c-0.197,0.791 0.285,1.592 1.076,1.788c3.071,0.765 10.012,2.493 10.012,2.493l0.714,-2.867Z" style="fill: rgb(255, 255, 255);"/>
          <path d="M410.638,44.468c-0,-0 1.538,-6.179 2.273,-9.133c0.102,-0.408 0.037,-0.839 -0.179,-1.199c-0.217,-0.36 -0.568,-0.619 -0.975,-0.721c-0.001,0 -0.001,0 -0.001,0c-0.408,-0.101 -0.839,-0.037 -1.199,0.18c-0.36,0.216 -0.619,0.567 -0.721,0.975c-0.735,2.953 -2.273,9.132 -2.273,9.132l3.075,0.766Z" style="fill: rgb(255, 255, 255);"/>
        </g>
        <g>
          <path d="M416.297,49.166c0,0 -13.122,-3.266 -17.54,-4.366c-0.38,-0.095 -0.782,-0.034 -1.118,0.167c-0.335,0.202 -0.577,0.529 -0.671,0.909c-0,0 -0.001,0.001 -0.001,0.002c-0.094,0.38 -0.034,0.782 0.168,1.117c0.201,0.336 0.528,0.577 0.908,0.672c4.418,1.1 17.54,4.366 17.54,4.366l0.714,-2.867Z" style="fill: rgb(255, 255, 255);"/>
          <path d="M415.583,52.033c0,-0 2.95,-11.849 4.021,-16.151c0.101,-0.408 0.037,-0.839 -0.18,-1.199c-0.216,-0.36 -0.567,-0.62 -0.975,-0.721c0,-0 -0,-0 -0,-0c-0.408,-0.102 -0.839,-0.037 -1.199,0.179c-0.36,0.217 -0.62,0.568 -0.721,0.975c-1.071,4.302 -4.02,16.152 -4.02,16.152l3.074,0.765Z" style="fill: rgb(255, 255, 255);"/>
        </g>
        <g>
          <path d="M439.197,84.445c-0,-0 -1.538,6.179 -2.273,9.132c-0.102,0.408 -0.361,0.758 -0.721,0.975c-0.36,0.216 -0.791,0.281 -1.199,0.18c-0,-0 -0.001,-0.001 -0.001,-0.001c-0.408,-0.101 -0.758,-0.36 -0.975,-0.72c-0.216,-0.36 -0.281,-0.792 -0.179,-1.199c0.735,-2.954 2.273,-9.133 2.273,-9.133l3.075,0.766Z" style="fill: rgb(255, 255, 255);"/>
          <path d="M436.128,83.676c-0,-0 6.941,1.728 10.012,2.492c0.791,0.197 1.272,0.998 1.076,1.789c-0.001,0.001 -0.001,0.002 -0.001,0.002c-0.197,0.791 -0.998,1.273 -1.789,1.076c-3.071,-0.764 -10.012,-2.492 -10.012,-2.492l0.714,-2.867Z" style="fill: rgb(255, 255, 255);"/>
        </g>
        <g>
          <path d="M433.949,76.319c0,-0 -2.949,11.849 -4.02,16.151c-0.102,0.408 -0.361,0.758 -0.721,0.975c-0.36,0.217 -0.791,0.281 -1.199,0.18c-0,-0 -0,-0 -0.001,-0.001c-0.407,-0.101 -0.758,-0.36 -0.974,-0.72c-0.217,-0.36 -0.282,-0.792 -0.18,-1.199c1.071,-4.302 4.02,-16.152 4.02,-16.152l3.075,0.766Z" style="fill: rgb(255, 255, 255);"/>
          <path d="M430.874,75.553c0,0 13.122,3.267 17.541,4.367c0.38,0.094 0.707,0.336 0.908,0.671c0.202,0.336 0.262,0.738 0.168,1.118c-0,0 -0.001,0.001 -0.001,0.002c-0.094,0.38 -0.336,0.706 -0.671,0.908c-0.336,0.202 -0.738,0.262 -1.118,0.168c-4.418,-1.1 -17.54,-4.367 -17.54,-4.367l0.713,-2.867Z" style="fill: rgb(255, 255, 255);"/>
        </g>
        <path d="M444.635,94.309l-40.536,-62.354l-2.679,1.486l40.537,62.354l2.678,-1.486Z" style="fill: rgb(255, 255, 255);"/>
      </g>
      <g>
        <path d="M391.153,78.82c-1.719,-0.428 -3.46,0.618 -3.888,2.338c0,-0 0,-0 0,-0c-0.427,1.719 0.619,3.46 2.339,3.888c0.15,0.037 0.301,0.075 0.452,0.112c1.719,0.428 3.46,-0.619 3.888,-2.338c-0,0 -0,0 -0,0c0.428,-1.719 -0.619,-3.46 -2.338,-3.888c-0.151,-0.037 -0.302,-0.075 -0.453,-0.112Z" style="fill: rgb(255, 255, 255);"/>
        <path d="M456.124,42.783c-1.719,-0.428 -3.46,0.619 -3.888,2.338c0,0 0,0 0,0c-0.428,1.72 0.619,3.46 2.338,3.888c0.151,0.038 0.302,0.075 0.453,0.113c1.719,0.428 3.46,-0.619 3.888,-2.338c-0,-0 -0,-0 -0,-0c0.428,-1.72 -0.619,-3.46 -2.339,-3.888c-0.15,-0.038 -0.301,-0.075 -0.452,-0.113Z" style="fill: rgb(255, 255, 255);"/>
        <g>
          <path d="M399.668,74.28c0,0 -1.538,6.179 -2.273,9.133c-0.101,0.408 -0.037,0.839 0.18,1.199c0.216,0.36 0.567,0.619 0.975,0.721c-0,-0 0,-0 0,-0c0.408,0.101 0.839,0.037 1.199,-0.18c0.36,-0.216 0.62,-0.567 0.721,-0.975c0.735,-2.953 2.273,-9.132 2.273,-9.132l-3.075,-0.766Z" style="fill: rgb(255, 255, 255);"/>
          <path d="M402.74,75.04c-0,0 -6.941,-1.727 -10.012,-2.492c-0.791,-0.197 -1.592,0.285 -1.789,1.076c-0,0.001 -0.001,0.001 -0.001,0.002c-0.197,0.791 0.285,1.592 1.076,1.789c3.071,0.764 10.012,2.492 10.012,2.492l0.714,-2.867Z" style="fill: rgb(255, 255, 255);"/>
        </g>
        <g>
          <path d="M407.555,69.872c0,0 -2.95,11.85 -4.02,16.152c-0.102,0.407 -0.037,0.839 0.179,1.199c0.217,0.36 0.567,0.619 0.975,0.72c0,0.001 0.001,0.001 0.001,0.001c0.408,0.101 0.839,0.037 1.199,-0.18c0.36,-0.216 0.619,-0.567 0.721,-0.975c1.07,-4.302 4.02,-16.151 4.02,-16.151l-3.075,-0.766Z" style="fill: rgb(255, 255, 255);"/>
          <path d="M410.63,70.638c0,-0 -13.122,-3.267 -17.541,-4.366c-0.379,-0.095 -0.781,-0.035 -1.117,0.167c-0.335,0.202 -0.577,0.528 -0.671,0.908c-0.001,0.001 -0.001,0.002 -0.001,0.003c-0.094,0.379 -0.034,0.781 0.167,1.117c0.202,0.335 0.529,0.577 0.909,0.671c4.418,1.1 17.54,4.367 17.54,4.367l0.714,-2.867Z" style="fill: rgb(255, 255, 255);"/>
        </g>
        <g>
          <path d="M444.353,49.496c0,-0 6.941,1.728 10.012,2.492c0.791,0.197 1.273,0.998 1.076,1.789c-0,0.001 -0,0.001 -0,0.002c-0.197,0.791 -0.998,1.273 -1.789,1.076c-3.071,-0.765 -10.012,-2.492 -10.012,-2.492l0.713,-2.867Z" style="fill: rgb(255, 255, 255);"/>
          <path d="M443.636,52.357c-0,0 1.538,-6.179 2.273,-9.132c0.102,-0.408 0.361,-0.759 0.721,-0.975c0.36,-0.217 0.791,-0.281 1.199,-0.18c0,0 0.001,0 0.001,0c0.407,0.102 0.758,0.361 0.975,0.721c0.216,0.36 0.281,0.791 0.179,1.199c-0.735,2.954 -2.273,9.133 -2.273,9.133l-3.075,-0.766Z" style="fill: rgb(255, 255, 255);"/>
        </g>
        <g>
          <path d="M435.877,54.164c-0,-0 13.122,3.266 17.54,4.366c0.38,0.095 0.707,0.336 0.909,0.672c0.201,0.335 0.261,0.737 0.167,1.117c-0,0.001 -0,0.001 -0.001,0.002c-0.094,0.38 -0.336,0.707 -0.671,0.908c-0.336,0.202 -0.738,0.262 -1.117,0.168c-4.419,-1.1 -17.541,-4.366 -17.541,-4.366l0.714,-2.867Z" style="fill: rgb(255, 255, 255);"/>
          <path d="M435.163,57.031c-0,-0 2.95,-11.85 4.02,-16.152c0.102,-0.407 0.361,-0.758 0.721,-0.975c0.36,-0.216 0.791,-0.281 1.199,-0.179c0,-0 0.001,-0 0.001,0c0.408,0.101 0.758,0.361 0.975,0.721c0.216,0.36 0.281,0.791 0.179,1.199c-1.071,4.302 -4.02,16.151 -4.02,16.151l-3.075,-0.765Z" style="fill: rgb(255, 255, 255);"/>
        </g>
        <path d="M454.674,44.705l-65.038,36.074l1.67,2.568l65.038,-36.073l-1.67,-2.569Z" style="fill: rgb(255, 255, 255);"/>
      </g>
    </g>
    <circle cx="55.817" cy="58.787" r="2.636" style="fill: rgb(255, 255, 255);"/>
    <circle cx="40.521" cy="86.042" r="2.636" style="fill: rgb(255, 255, 255);"/>
    <circle cx="453.807" cy="132.157" r="2.636" style="fill: rgb(255, 255, 255);"/>
    <circle cx="343.127" cy="46.641" r="2.636" style="fill: rgb(255, 255, 255);"/>
    <circle cx="471.4" cy="159.315" r="2.636" style="fill: rgb(255, 255, 255);"/>
    <circle cx="30.258" cy="36.797" r="4.294" style="fill: rgb(255, 255, 255);"/>
    <circle cx="467.263" cy="108.15" r="4.294" style="fill: rgb(255, 255, 255);"/>
    <g>
      <path d="M70.014,78.148c-11.634,0.206 -24.709,10.913 -23.062,30.268c1.956,22.032 17.296,33.769 33.975,36.549c0.618,14.413 6.074,27.385 16.472,29.547c15.958,3.295 26.562,-10.707 30.475,-22.958c0.411,-1.236 -1.854,-1.648 -2.368,-0.515c-4.839,13.178 -15.34,19.767 -19.87,19.87c-8.751,0.103 -13.693,-11.634 -14.517,-25.327c12.149,-0.72 24.915,-5.353 29.445,-14.928c5.148,-10.81 -1.647,-30.062 -14.825,-29.548c-15.752,0.618 -24.194,21.621 -24.812,40.358c-12.663,-2.677 -24.091,-14.928 -24.4,-35.21c-0.309,-16.678 11.325,-26.665 19.046,-23.473c4.736,1.956 6.28,9.574 -3.5,14.516c-7.104,3.501 0.515,14.414 7.927,5.457c8.134,-9.781 3.398,-20.385 -2.368,-23.062c-2.368,-1.132 -4.941,-1.647 -7.618,-1.544Zm38.504,26.665c6.692,0.515 7.722,15.546 4.016,21.929c-3.81,7.618 -12.252,14.31 -21.518,15.237c0.412,-15.34 5.663,-33.151 16.473,-37.063c0.309,-0.103 0.72,-0.103 1.029,-0.103Z" style="fill-rule: nonzero; fill: rgb(255, 255, 255);"/>
      <path d="M137.963,101.209c-2.677,0 -5.251,1.442 -6.898,4.119c-6.074,10.089 -7.927,42.107 -4.427,65.581c0.412,2.78 2.368,4.633 7.31,4.015c1.956,-0.309 2.059,-1.441 1.75,-2.78c1.647,-17.296 6.177,-35.622 9.986,-35.622c0.206,0 0.309,0.412 0.309,1.545c-0.309,11.016 -4.838,38.195 7.516,36.651c9.678,-1.235 15.34,-22.135 15.34,-22.135c-0,0 0.515,-1.338 -0.206,-1.853c-0.824,-0.618 -1.647,-0 -1.853,0.515c-1.133,2.368 -5.766,18.634 -11.016,19.252c-2.677,0.309 -0.618,-21.929 -0.309,-30.371c0.103,-4.53 -4.015,-7.104 -7.001,-7.001c-7.309,-0 -12.045,14.619 -13.899,30.989c-0.617,-6.692 -0.823,-14.105 -0.617,-21.311c13.281,-13.281 16.472,-32.225 11.633,-37.99c-2.059,-2.471 -4.941,-3.707 -7.618,-3.604Zm2.986,3.707c8.957,2.162 2.985,22.958 -6.898,34.695c0.823,-18.737 4.015,-35.416 6.898,-34.695Z" style="fill-rule: nonzero; fill: rgb(255, 255, 255);"/>
      <path d="M194.072,132.816c-1.441,0 -2.882,0.412 -3.294,1.133c-0.103,0.205 -0.309,0.617 -0.412,1.235c-3.294,-1.956 -7.618,-2.78 -12.045,-1.647c-9.987,2.574 -17.811,27.385 -7.413,38.607c2.574,2.677 7.824,4.736 13.693,-1.235c1.544,-1.647 2.882,-3.398 4.015,-5.251c1.132,5.56 3.809,9.575 8.957,9.06c9.677,-0.927 16.267,-22.135 16.267,-22.135c-0,0 0.514,-1.338 -0.206,-1.956c-0.824,-0.515 -1.648,0.103 -1.854,0.618c-1.235,2.368 -6.692,18.531 -11.942,19.252c-5.251,0.618 -1.441,-27.489 -0.618,-34.901c0.206,-1.853 -2.677,-2.883 -5.148,-2.78Zm-7.824,4.839c1.133,0.103 2.265,0.515 3.295,1.132c-1.03,5.354 -2.162,14.311 -1.648,22.135c-1.544,4.118 -3.912,7.825 -7.001,8.957c-8.339,2.986 -6.383,-25.429 2.574,-31.298c0.927,-0.617 1.853,-0.926 2.78,-0.926Z" style="fill-rule: nonzero; fill: rgb(255, 255, 255);"/>
      <path d="M215.178,133.228c-0.824,0.103 -1.544,0.309 -1.853,0.824c-1.236,2.059 -2.986,18.634 -1.442,36.548c0.412,4.015 7.825,5.251 7.825,3.089c0.103,-2.78 0.206,-7.722 0.412,-12.149c4.118,-19.252 14.825,-30.989 14.516,-21.723c-0.309,11.016 -1.853,19.87 -0.824,26.871c0.618,3.912 8.237,3.5 9.266,2.059c0.103,-0 0.103,-0.103 0.103,-0.103c2.368,-3.501 6.383,-31.298 12.252,-30.886c0.308,-0 0.411,0.721 0.411,2.059c-0.411,11.119 -4.427,36.445 7.413,34.901c9.266,-1.235 15.546,-22.135 15.546,-22.135c0,0 0.515,-1.338 -0.206,-1.853c-0.721,-0.515 -1.544,0.103 -1.75,0.515c-1.133,2.368 -6.383,18.325 -11.428,18.943c-2.471,0.309 -0.824,-21.105 -0.515,-29.547c0.103,-3.398 -2.162,-8.854 -9.265,-6.898c-5.663,1.647 -9.266,9.883 -12.767,24.914c0.103,-6.074 0.515,-13.075 0.721,-18.016c0.103,-3.501 -3.603,-7.928 -9.575,-6.589c-4.633,1.029 -9.78,6.177 -13.589,17.399c0.308,-5.766 0.514,-11.222 0.823,-14.311c0.309,-2.162 -3.603,-4.015 -6.074,-3.912Z" style="fill-rule: nonzero; fill: rgb(255, 255, 255);"/>
      <path d="M290.128,105.945c-3.295,0.103 -6.692,1.956 -8.545,5.045c-5.972,9.986 -6.898,36.445 -3.398,59.919c0.412,2.78 2.986,4.633 7.825,4.015c2.779,-0.412 1.956,-2.368 1.544,-4.427c-0.412,-1.956 -0.721,-4.118 -1.029,-6.486c2.264,-7.104 7.618,-22.65 12.56,-24.194c8.236,-2.677 5.045,29.856 -5.148,30.783c-3.912,0.103 -4.324,-7.927 -4.324,-7.927c0,-0 -1.544,1.235 -1.544,2.059c-0,5.353 4.427,12.148 13.487,9.368c7.721,-2.368 14.722,-14.104 12.148,-28.209c-1.853,-9.574 -11.428,-10.81 -16.575,-7.515c-5.663,3.603 -9.163,12.045 -11.325,18.943c-0.309,-5.045 -0.515,-10.398 -0.412,-15.649c13.899,-13.075 16.575,-26.768 11.737,-32.636c-1.853,-2.162 -4.427,-3.192 -7.001,-3.089Zm2.368,3.192c6.795,0.206 6.177,14.825 -7.001,29.342c0.515,-15.546 2.883,-29.548 7.001,-29.342Z" style="fill-rule: nonzero; fill: rgb(255, 255, 255);"/>
      <path d="M334.398,132.61c-4.015,0.206 -6.28,2.78 -7.31,6.383c-2.059,-0.206 -4.221,0.927 -5.045,3.707c-3.294,12.045 -1.441,29.959 10.193,32.121c8.236,1.544 13.178,-3.809 15.34,-11.119c6.074,-0.927 12.457,-4.736 14.722,-12.56c0.412,-1.545 -2.059,-1.75 -2.368,-0.618c-1.647,6.074 -6.589,9.575 -11.736,10.501c2.264,-11.53 -1.545,-26.253 -10.296,-28.106c-1.235,-0.309 -2.471,-0.412 -3.5,-0.309Zm0.206,2.677c0.411,-0 0.926,-0 1.338,0.103c8.545,1.235 10.707,15.546 8.648,25.944c-1.75,-0.103 -3.397,-0.515 -4.736,-1.132c-4.221,-1.853 -7.412,-6.692 -8.957,-12.869l0,-0.103c0.206,-0.824 0.412,-1.751 0.618,-2.677c0.515,-1.75 -0.103,-3.295 -1.235,-4.324c0.411,-3.192 2.162,-4.633 4.324,-4.942Zm-4.839,19.973c2.059,3.294 5.045,5.868 8.442,7.515c1.544,0.721 3.5,1.133 5.662,1.133c-1.132,3.912 -2.882,6.898 -5.147,7.824c-4.839,1.854 -9.472,-4.735 -8.957,-16.472Z" style="fill-rule: nonzero; fill: rgb(255, 255, 255);"/>
      <path d="M363.019,122.624c-2.162,-0.103 -3.912,0.926 -4.839,2.368c-0.824,1.441 -0.721,3.294 0.206,4.838c1.029,1.957 3.397,2.986 6.28,3.398c-0.309,3.5 -4.221,16.678 -4.942,18.634c-0.617,1.545 1.75,2.162 2.368,0.618c0.618,-1.956 4.633,-13.384 5.148,-19.458c2.162,-0.103 5.456,-2.986 5.456,-2.574c0.309,16.576 -7.721,40.152 2.883,44.167c10.192,3.192 17.502,-12.457 20.694,-24.091c0.103,-0.824 -1.03,-1.029 -1.339,-1.029c-0.617,-0 -1.029,0.205 -1.132,0.823c-3.809,11.737 -10.09,22.753 -13.899,20.385c-4.015,-7.928 9.369,-45.505 -4.221,-44.373c-3.397,0.515 -4.839,4.118 -8.236,4.633c-0,-1.75 -0.103,-3.809 -0.515,-5.148c-0.309,-0.823 -0.721,-1.647 -1.441,-2.265c-0.618,-0.514 -1.545,-0.926 -2.471,-0.926Zm-0,2.574c0.412,-0 0.515,0.103 0.823,0.308c0.206,0.206 0.412,0.515 0.618,1.133c0.412,0.926 0.412,2.574 0.412,4.221c-2.162,-0.309 -3.706,-1.133 -4.324,-2.265c-0.412,-0.824 -0.412,-1.75 -0.103,-2.368c0.309,-0.618 1.029,-1.132 2.574,-1.029Z" style="fill-rule: nonzero; fill: rgb(255, 255, 255);"/>
      <path d="M436.219,109.137c1.338,-0.103 2.162,0.926 2.47,2.985c0.309,2.06 0,4.427 -0.926,7.207c-0.927,2.78 -2.677,5.045 -5.045,6.795c-1.235,0.824 -2.574,1.339 -4.015,1.647c0.721,-5.044 1.647,-9.368 2.883,-12.766c1.235,-3.397 2.779,-5.353 4.633,-5.868Zm-23.68,29.444c1.236,0.103 2.265,0.721 3.089,1.648c0.824,1.029 1.441,2.162 1.956,3.397c-0.103,2.883 -0,5.663 0.206,8.339c-0.515,2.986 -1.236,6.178 -2.265,9.369c-1.133,3.192 -2.677,5.868 -4.839,7.928c-2.059,1.647 -3.809,1.132 -5.25,-1.442c-1.545,-2.574 -2.471,-5.971 -2.78,-10.398c-0.412,-4.324 0.103,-8.339 1.441,-12.149c1.339,-3.809 3.706,-5.971 7.31,-6.692c0.412,-0.102 0.823,-0.102 1.132,0Zm36.755,15.135c0.206,-0.412 0.411,-0.824 0.514,-1.236c0.103,-0.412 0,-0.721 -0.103,-0.823c-0.103,-0.103 -0.308,-0.309 -0.617,-0.412c-0.412,-0.103 -0.721,-0.103 -1.03,-0c-0.309,0.103 -0.515,0.309 -0.618,0.514l-1.544,2.986c-0.823,2.162 -1.853,4.324 -2.986,6.692c-1.544,2.986 -3.191,5.354 -4.941,7.31c-1.853,1.956 -3.81,2.78 -5.766,2.265c-2.162,-1.133 -3.603,-5.869 -4.221,-14.208c-0.72,-8.339 -0.514,-17.09 0.412,-26.356c1.853,-0.309 3.706,-0.926 5.457,-1.956c2.882,-1.75 4.941,-4.015 6.074,-6.795c1.132,-2.78 1.75,-5.353 1.75,-7.721c-0.103,-2.368 -0.412,-4.016 -1.132,-4.942c-0.721,-0.824 -1.751,-1.544 -3.089,-2.059c-1.338,-0.515 -2.677,-0.824 -4.221,-0.824c-1.03,0 -1.956,0.206 -2.883,0.515c-2.471,1.029 -4.633,3.397 -6.383,7.001c-1.75,3.603 -3.191,8.03 -4.324,13.075c-3.089,-0.927 -6.28,-2.162 -9.678,-3.501c-5.456,-2.47 -11.016,-4.221 -16.678,-5.353c-5.662,-1.133 -10.913,-0 -15.855,3.397c-0.72,0.721 -0.926,1.442 -0.72,2.265c0.205,0.927 0.72,1.442 1.647,1.751c0.823,0.308 1.853,-0.103 3.191,-1.03c3.398,-2.574 7.31,-3.397 11.737,-2.574c4.324,0.824 8.854,2.265 13.59,4.221c4.015,1.647 8.03,2.986 12.045,4.015c-0.411,2.574 -0.72,5.148 -0.926,7.928c-1.647,-1.956 -3.604,-3.398 -5.869,-4.324c-2.264,-0.927 -4.838,-0.824 -7.824,0.103c-3.809,1.441 -6.692,4.633 -8.854,9.574c-2.162,5.045 -2.986,10.296 -2.471,15.958c0.515,5.663 2.986,10.295 7.413,13.899c1.544,1.235 3.706,1.75 6.383,1.647c2.677,-0.103 5.148,-1.647 7.413,-4.53c2.059,-2.78 3.706,-5.662 4.838,-8.648c1.545,7.516 4.633,12.046 9.06,13.487c4.118,0.721 7.619,-0.309 10.604,-3.192c2.986,-2.779 5.251,-6.177 7.001,-9.986l3.604,-8.133Z" style="fill-rule: nonzero; fill: rgb(255, 255, 255);"/>
    </g>
  </g>
</svg>